<?xml version="1.0" standalone="no"?>
<!DOCTYPE svg PUBLIC "-//W3C//DTD SVG 20010904//EN"
 "http://www.w3.org/TR/2001/REC-SVG-20010904/DTD/svg10.dtd">
<svg version="1.0" xmlns="http://www.w3.org/2000/svg"
 width="840.000000pt" height="836.000000pt" viewBox="0 0 840.000000 836.000000"
 preserveAspectRatio="xMidYMid meet">

<g transform="translate(0.000000,836.000000) scale(0.100000,-0.100000)"
fill="#000000" stroke="none">
<path d="M4310 7934 c-104 -38 -182 -108 -255 -229 -67 -112 -75 -158 -86
-465 -10 -315 -18 -381 -60 -539 -147 -551 -484 -1082 -1068 -1681 l-171 -175
-51 55 -52 55 -1111 0 -1111 0 -41 -23 c-68 -39 -76 -63 -85 -246 -11 -222
-10 -3703 1 -3956 5 -118 14 -222 22 -245 23 -69 48 -75 336 -85 324 -12 1434
-12 1730 0 353 13 343 3 354 349 4 129 11 238 16 243 4 4 120 -22 257 -58 794
-209 1483 -325 2400 -403 665 -57 1272 -72 1476 -36 139 24 268 89 376 189
122 113 193 263 193 410 0 82 -29 205 -65 277 -14 27 -25 53 -25 58 0 6 40 30
88 55 162 84 271 192 341 341 66 138 90 267 71 375 -13 76 -54 208 -82 263
-18 37 -18 40 -2 58 9 10 26 21 38 25 46 14 150 100 216 177 148 173 193 316
173 540 -13 140 -38 210 -111 315 -31 45 -61 89 -66 96 -6 9 11 37 58 92 73
88 146 224 170 320 22 86 20 233 -3 326 -58 225 -235 423 -443 495 -66 23 -94
26 -303 33 -126 5 -656 9 -1177 9 -521 1 -962 4 -980 7 -60 10 -60 10 -43 51
42 100 141 482 189 729 44 229 57 542 36 854 -29 420 -187 817 -424 1068 -118
124 -239 203 -401 259 -93 33 -258 41 -325 17z m288 -366 c201 -95 441 -481
496 -799 42 -239 44 -648 6 -874 -48 -279 -139 -615 -241 -886 -87 -234 -89
-276 -11 -363 l33 -38 1277 -9 c1253 -8 1479 -15 1547 -43 42 -18 111 -104
125 -157 17 -61 14 -266 -4 -317 -20 -55 -67 -113 -114 -140 -62 -34 -141 -41
-532 -47 -206 -3 -391 -8 -410 -11 -85 -13 -140 -83 -140 -176 0 -45 5 -62 30
-96 50 -69 73 -72 530 -81 448 -9 451 -10 520 -88 70 -80 100 -202 80 -327
-25 -155 -113 -247 -265 -275 -37 -7 -227 -11 -510 -11 l-451 0 -46 -47 c-58
-60 -68 -81 -68 -136 0 -33 7 -54 29 -83 57 -79 35 -74 373 -85 407 -12 445
-20 517 -110 54 -68 75 -151 69 -271 -6 -115 -32 -181 -94 -238 -81 -75 -108
-79 -574 -88 -443 -9 -446 -10 -487 -92 -40 -78 -28 -154 34 -212 41 -39 68
-46 204 -53 191 -9 330 -25 359 -40 39 -20 89 -81 119 -145 21 -45 25 -70 26
-140 0 -75 -3 -91 -27 -132 -70 -118 -232 -146 -738 -128 -1177 42 -2153 170
-3057 400 -237 60 -513 140 -530 153 -10 7 -13 317 -13 1486 l0 1476 151 150
c327 324 588 608 762 827 354 446 611 960 701 1401 36 176 46 298 46 566 l0
237 29 28 c65 62 139 66 249 14z m-2283 -2990 c3 -13 4 -876 3 -1918 l-3
-1895 -877 -3 -878 -2 0 1920 0 1920 875 0 875 0 5 -22z"/>
</g>
</svg>
