<svg width="32" height="32" viewBox="0 0 32 32" fill="none" xmlns="http://www.w3.org/2000/svg">
<g opacity="0.65">
<path d="M28.2842 13.5949H11.4766C11.4736 13.5949 11.4707 13.5888 11.4736 13.5888L17.8135 7.29197C18.3262 6.78337 18.3438 5.93874 17.8486 5.40896C17.3564 4.87917 16.5391 4.86101 16.0264 5.37263L7.39551 13.943C7.14355 14.1943 7 14.5425 7 14.9027C7 15.266 7.14355 15.6111 7.39551 15.8624L16.0732 24.4812C16.3223 24.7295 16.6445 24.8536 16.9668 24.8536C17.3066 24.8536 17.6436 24.7174 17.8955 24.4449C18.3877 23.9151 18.373 23.0705 17.8604 22.5619L11.5205 16.265C11.5176 16.262 11.5205 16.259 11.5234 16.259H28.3135C28.999 16.259 29.5586 15.705 29.5996 15.0087C29.6436 14.2367 29.0312 13.5949 28.2842 13.5949Z" fill="black" stroke="black"/>
</g>
</svg>
