<svg width="36" height="41" viewBox="0 0 36 41" fill="none" xmlns="http://www.w3.org/2000/svg">
<g filter="url(#filter0_d_63_43)">
<path d="M24.5 8.25C24.5 12.0223 21.5471 15 18 15C14.4529 15 11.5 12.0223 11.5 8.25C11.5 4.47775 14.4529 1.5 18 1.5C21.5471 1.5 24.5 4.47775 24.5 8.25ZM18 21.0938C19.7345 21.0938 21.3859 20.7208 22.8823 20.0625H23.6C27.3659 20.0625 30.5 23.2272 30.5 27.225V29.9062C30.5 30.8297 29.7846 31.5 29 31.5H7C6.21535 31.5 5.5 30.8297 5.5 29.9062V27.225C5.5 23.2272 8.6341 20.0625 12.4 20.0625H13.1188C14.6177 20.72 16.2636 21.0938 18 21.0938Z" stroke="black" stroke-opacity="0.6" stroke-width="3" shape-rendering="crispEdges"/>
</g>
<defs>
<filter id="filter0_d_63_43" x="0" y="0" width="36" height="41" filterUnits="userSpaceOnUse" color-interpolation-filters="sRGB">
<feFlood flood-opacity="0" result="BackgroundImageFix"/>
<feColorMatrix in="SourceAlpha" type="matrix" values="0 0 0 0 0 0 0 0 0 0 0 0 0 0 0 0 0 0 127 0" result="hardAlpha"/>
<feOffset dy="4"/>
<feGaussianBlur stdDeviation="2"/>
<feComposite in2="hardAlpha" operator="out"/>
<feColorMatrix type="matrix" values="0 0 0 0 0 0 0 0 0 0 0 0 0 0 0 0 0 0 0.25 0"/>
<feBlend mode="normal" in2="BackgroundImageFix" result="effect1_dropShadow_63_43"/>
<feBlend mode="normal" in="SourceGraphic" in2="effect1_dropShadow_63_43" result="shape"/>
</filter>
</defs>
</svg>
