<svg width="33" height="33" viewBox="0 0 33 33" fill="none" xmlns="http://www.w3.org/2000/svg">
<path d="M31.3389 24.4441L31.3382 24.4435C31.2598 24.3698 31.1733 24.2905 31.0801 24.2051C30.3946 23.5768 29.3456 22.6154 28.4828 21.0866C27.4906 19.3287 26.7798 16.9136 26.7798 13.4062C26.7798 9.2955 23.4694 5.7689 18.5874 4.88152L17.3557 4.65763V3.4057V2.0625C17.3557 1.97727 17.3197 1.85718 17.1775 1.73271C17.0325 1.60569 16.7974 1.5 16.5 1.5C16.2026 1.5 15.9675 1.60569 15.8225 1.73271C15.6803 1.85718 15.6443 1.97727 15.6443 2.0625V3.4057V4.65763L14.4126 4.88152C9.53061 5.7689 6.22022 9.2955 6.22022 13.4062C6.22022 16.9136 5.50937 19.3287 4.51721 21.0866C3.65436 22.6154 2.60544 23.5768 1.91989 24.2051C1.82676 24.2905 1.74034 24.3697 1.662 24.4433L31.3389 24.4441ZM31.3389 24.4441C31.4206 24.5209 31.4579 24.5841 31.4758 24.6249C31.4937 24.6659 31.5003 24.7029 31.5 24.7387L31.5 24.7395M31.3389 24.4441L31.5 24.7395M31.5 24.7395C31.499 24.8755 31.3197 25.3125 30.6354 25.3125H2.36455C1.68154 25.3125 1.50119 24.8765 1.50001 24.7386L31.5 24.7395ZM19.1246 30.375C18.5746 31.0253 17.6637 31.5 16.5 31.5C15.3363 31.5 14.4254 31.0253 13.8754 30.375H19.1246ZM1.50001 24.7385C1.49976 24.7029 1.50624 24.6662 1.52413 24.6253C1.54196 24.5846 1.57942 24.5211 1.66176 24.4435L1.50001 24.7385Z" stroke="black" stroke-opacity="0.6" stroke-width="3"/>
</svg>
