<svg width="34" height="28" viewBox="0 0 34 28" fill="none" xmlns="http://www.w3.org/2000/svg">
<path d="M16.5492 7.26394L5.66711 16.7556V26.9999C5.66711 27.2651 5.76661 27.5195 5.94371 27.7071C6.12082 27.8946 6.36102 28 6.61149 28L13.2256 27.9819C13.4753 27.9806 13.7143 27.8746 13.8903 27.6872C14.0664 27.4998 14.1653 27.2461 14.1653 26.9818V20.9992C14.1653 20.734 14.2648 20.4796 14.4419 20.292C14.619 20.1045 14.8592 19.9991 15.1096 19.9991H18.8871C19.1376 19.9991 19.3778 20.1045 19.5549 20.292C19.732 20.4796 19.8315 20.734 19.8315 20.9992V26.9774C19.8311 27.109 19.8553 27.2394 19.9025 27.3611C19.9498 27.4828 20.0193 27.5934 20.1071 27.6866C20.1948 27.7798 20.299 27.8537 20.4138 27.9042C20.5286 27.9547 20.6516 27.9806 20.7759 27.9806L27.3877 28C27.6381 28 27.8783 27.8946 28.0554 27.7071C28.2325 27.5195 28.332 27.2651 28.332 26.9999V16.7487L17.4523 7.26394C17.3244 7.15475 17.165 7.09521 17.0008 7.09521C16.8365 7.09521 16.6771 7.15475 16.5492 7.26394ZM33.7386 13.7153L28.8042 9.40792V0.750084C28.8042 0.551149 28.7296 0.360363 28.5968 0.219695C28.4639 0.0790266 28.2838 0 28.0959 0H24.7906C24.6028 0 24.4226 0.0790266 24.2898 0.219695C24.157 0.360363 24.0824 0.551149 24.0824 0.750084V5.28872L18.798 0.684451C18.2909 0.242514 17.6545 0.000883439 16.9978 0.000883439C16.3411 0.000883439 15.7047 0.242514 15.1976 0.684451L0.257045 13.7153C0.185325 13.7781 0.125987 13.8552 0.0824235 13.9423C0.0388596 14.0293 0.0119231 14.1246 0.00315311 14.2227C-0.00561692 14.3208 0.00395141 14.4198 0.0313114 14.514C0.0586713 14.6082 0.103287 14.6957 0.162608 14.7716L1.6677 16.7094C1.72686 16.7855 1.79963 16.8486 1.88184 16.895C1.96404 16.9413 2.05408 16.9701 2.14679 16.9795C2.2395 16.989 2.33306 16.979 2.42211 16.9501C2.51117 16.9213 2.59397 16.8741 2.66578 16.8113L16.5492 4.70115C16.6771 4.59197 16.8365 4.53242 17.0008 4.53242C17.165 4.53242 17.3244 4.59197 17.4523 4.70115L31.3363 16.8113C31.408 16.8741 31.4907 16.9213 31.5796 16.9503C31.6685 16.9793 31.762 16.9894 31.8546 16.9801C31.9473 16.9708 32.0373 16.9423 32.1195 16.8962C32.2017 16.85 32.2745 16.7872 32.3338 16.7112L33.8389 14.7735C33.8982 14.6972 33.9426 14.6092 33.9696 14.5146C33.9967 14.42 34.0058 14.3207 33.9965 14.2223C33.9871 14.124 33.9595 14.0286 33.9153 13.9415C33.871 13.8545 33.811 13.7776 33.7386 13.7153Z" fill="#2EA3F8"/>
</svg>
