<svg width="98" height="53" viewBox="0 0 98 53" fill="none" xmlns="http://www.w3.org/2000/svg">
<path fill-rule="evenodd" clip-rule="evenodd" d="M0.597536 0C0.204212 2.33834 0 4.73541 0 7.17709C0 32.4844 21.938 53 49 53C76.062 53 98 32.4844 98 7.17709C98 4.73541 97.7958 2.33834 97.4025 0H0.597536Z" fill="#2EA3F8"/>
<g filter="url(#filter0_di_63_48)">
<path d="M59.2143 16.4949H51.1786V9.19388C51.1786 8.29798 50.3789 7.57143 49.3929 7.57143H47.6071C46.6211 7.57143 45.8214 8.29798 45.8214 9.19388V16.4949H37.7857C36.7997 16.4949 36 17.2214 36 18.1173V19.7398C36 20.6357 36.7997 21.3622 37.7857 21.3622H45.8214V28.6633C45.8214 29.5592 46.6211 30.2857 47.6071 30.2857H49.3929C50.3789 30.2857 51.1786 29.5592 51.1786 28.6633V21.3622H59.2143C60.2003 21.3622 61 20.6357 61 19.7398V18.1173C61 17.2214 60.2003 16.4949 59.2143 16.4949Z" fill="#F9F9F9"/>
</g>
<defs>
<filter id="filter0_di_63_48" x="32" y="7.57143" width="33" height="30.7143" filterUnits="userSpaceOnUse" color-interpolation-filters="sRGB">
<feFlood flood-opacity="0" result="BackgroundImageFix"/>
<feColorMatrix in="SourceAlpha" type="matrix" values="0 0 0 0 0 0 0 0 0 0 0 0 0 0 0 0 0 0 127 0" result="hardAlpha"/>
<feOffset dy="4"/>
<feGaussianBlur stdDeviation="2"/>
<feComposite in2="hardAlpha" operator="out"/>
<feColorMatrix type="matrix" values="0 0 0 0 0 0 0 0 0 0 0 0 0 0 0 0 0 0 0.25 0"/>
<feBlend mode="normal" in2="BackgroundImageFix" result="effect1_dropShadow_63_48"/>
<feBlend mode="normal" in="SourceGraphic" in2="effect1_dropShadow_63_48" result="shape"/>
<feColorMatrix in="SourceAlpha" type="matrix" values="0 0 0 0 0 0 0 0 0 0 0 0 0 0 0 0 0 0 127 0" result="hardAlpha"/>
<feOffset dy="4"/>
<feGaussianBlur stdDeviation="2"/>
<feComposite in2="hardAlpha" operator="arithmetic" k2="-1" k3="1"/>
<feColorMatrix type="matrix" values="0 0 0 0 0.0791667 0 0 0 0 0.0686111 0 0 0 0 0.0686111 0 0 0 0.31 0"/>
<feBlend mode="normal" in2="shape" result="effect2_innerShadow_63_48"/>
</filter>
</defs>
</svg>
